{"asset":{"generator":"glTF-Transform v4.0.2","version":"2.0"},"accessors":[{"type":"VEC3","componentType":5126,"count":268080,"max":[0.32141414284706116,0.39077040553092957,0.4726485013961792],"min":[-0.3697698414325714,-0.3952154815196991,-0.4668503403663635],"bufferView":0,"byteOffset":0},{"type":"VEC3","componentType":5126,"count":268080,"bufferView":0,"byteOffset":12},{"type":"VEC2","componentType":5126,"count":268080,"bufferView":0,"byteOffset":24},{"type":"SCALAR","componentType":5125,"count":1500000,"bufferView":1,"byteOffset":0}],"bufferViews":[{"buffer":0,"byteOffset":0,"byteLength":8578560,"byteStride":32,"target":34962},{"buffer":0,"byteOffset":8578560,"byteLength":6000000,"target":34963}],"samplers":[{"magFilter":9729,"minFilter":9987,"wrapS":10497,"wrapT":10497}],"textures":[{"source":1,"sampler":0},{"source":2,"sampler":0},{"source":0,"sampler":0}],"images":[{"mimeType":"image/jpeg","uri":"metallicRoughness_1.jpg"},{"mimeType":"image/jpeg","uri":"baseColor_1.jpg"},{"mimeType":"image/jpeg","uri":"normal_1.jpg"}],"buffers":[{"uri":"makershut.bin","byteLength":14578560}],"materials":[{"name":"tripo_material_2f366682-4b2f-4501-97ac-9b5b6353ba54","pbrMetallicRoughness":{"baseColorTexture":{"index":0},"metallicRoughnessTexture":{"index":2}},"normalTexture":{"index":1}}],"meshes":[{"primitives":[{"attributes":{"POSITION":0,"NORMAL":1,"TEXCOORD_0":2},"mode":4,"material":0,"indices":3}]}],"nodes":[{"name":"tripo_node_2f366682-4b2f-4501-97ac-9b5b6353ba54","extras":{"name":"tripo_node_2f366682-4b2f-4501-97ac-9b5b6353ba54"},"mesh":0},{"children":[0]}],"scenes":[{"name":"AuxScene","nodes":[1]}],"scene":0}