{"asset":{"generator":"glTF-Transform v4.0.2","version":"2.0"},"accessors":[{"type":"SCALAR","componentType":5125,"count":518934,"bufferView":0,"byteOffset":0},{"type":"VEC3","componentType":5126,"count":94494,"max":[0.34754183888435364,0.4730871915817261,0.34944912791252136],"min":[-0.34019947052001953,-0.4755636155605316,-0.3539261817932129],"bufferView":1,"byteOffset":0},{"type":"VEC3","componentType":5126,"count":94494,"bufferView":1,"byteOffset":12},{"type":"VEC2","componentType":5126,"count":94494,"bufferView":1,"byteOffset":24}],"bufferViews":[{"buffer":0,"byteOffset":0,"byteLength":2075736,"target":34963},{"buffer":0,"byteOffset":2075736,"byteLength":3023808,"byteStride":32,"target":34962}],"samplers":[{"magFilter":9729,"minFilter":9987,"wrapS":10497,"wrapT":10497}],"textures":[{"sampler":0,"extensions":{"EXT_texture_webp":{"source":1}}},{"sampler":0,"extensions":{"EXT_texture_webp":{"source":2}}},{"sampler":0,"extensions":{"EXT_texture_webp":{"source":0}}}],"images":[{"mimeType":"image/webp","uri":"metallicRoughness_1.webp"},{"mimeType":"image/webp","uri":"baseColor_1.webp"},{"mimeType":"image/webp","uri":"normal_1.webp"}],"buffers":[{"uri":"hetti3d.bin","byteLength":5099544}],"materials":[{"name":"tripo_material_bba3ff16-e28c-4b81-ac78-616971d1c8d9","pbrMetallicRoughness":{"baseColorTexture":{"index":0},"metallicRoughnessTexture":{"index":2}},"normalTexture":{"index":1}}],"meshes":[{"primitives":[{"attributes":{"POSITION":1,"NORMAL":2,"TEXCOORD_0":3},"mode":4,"material":0,"indices":0}]}],"nodes":[{"name":"tripo_node_bba3ff16-e28c-4b81-ac78-616971d1c8d9","extras":{"name":"tripo_node_bba3ff16-e28c-4b81-ac78-616971d1c8d9"},"mesh":0}],"scenes":[{"name":"AuxScene","nodes":[0]}],"scene":0,"extensionsUsed":["EXT_texture_webp"],"extensionsRequired":["EXT_texture_webp"]}