{"asset":{"generator":"glTF-Transform v4.0.2","version":"2.0"},"accessors":[{"type":"VEC3","componentType":5126,"count":157018,"max":[0.3197374641895294,0.4735093414783478,0.35667333006858826],"min":[-0.31474971771240234,-0.4759655296802521,-0.35540875792503357],"bufferView":0,"byteOffset":0},{"type":"VEC3","componentType":5126,"count":157018,"bufferView":0,"byteOffset":12},{"type":"VEC2","componentType":5126,"count":157018,"bufferView":0,"byteOffset":24},{"type":"SCALAR","componentType":5125,"count":884415,"bufferView":1,"byteOffset":0}],"bufferViews":[{"buffer":0,"byteOffset":0,"byteLength":5024576,"byteStride":32,"target":34962},{"buffer":0,"byteOffset":5024576,"byteLength":3537660,"target":34963}],"samplers":[{"magFilter":9729,"minFilter":9987,"wrapS":10497,"wrapT":10497}],"textures":[{"source":1,"sampler":0},{"source":2,"sampler":0},{"source":0,"sampler":0}],"images":[{"mimeType":"image/jpeg","uri":"metallicRoughness_1.jpg"},{"mimeType":"image/jpeg","uri":"baseColor_1.jpg"},{"mimeType":"image/jpeg","uri":"normal_1.jpg"}],"buffers":[{"uri":"lieven3d.bin","byteLength":8562236}],"materials":[{"name":"tripo_material_a7c0eaa4-c70e-4b14-90b5-e4f6b384cfa8","pbrMetallicRoughness":{"baseColorTexture":{"index":0},"metallicRoughnessTexture":{"index":2}},"normalTexture":{"index":1}}],"meshes":[{"primitives":[{"attributes":{"POSITION":0,"NORMAL":1,"TEXCOORD_0":2},"mode":4,"material":0,"indices":3}]}],"nodes":[{"name":"tripo_node_a7c0eaa4-c70e-4b14-90b5-e4f6b384cfa8","extras":{"name":"tripo_node_a7c0eaa4-c70e-4b14-90b5-e4f6b384cfa8"},"mesh":0},{"children":[0]}],"scenes":[{"name":"AuxScene","nodes":[1]}],"scene":0}